<svg width="70" height="27" viewBox="0 0 70 27" fill="none" xmlns="http://www.w3.org/2000/svg">
<path d="M15.88 4.32L13.16 4.28L10.92 5.04C10.84 5.04 10.5733 5.46667 10.12 6.32C9.93333 6.74667 9.70667 7.21333 9.44 7.72C9.2 8.22667 9.02667 8.54667 8.92 8.68L8 14.68C7.94667 14.68 7.76 15.1333 7.44 16.04C7.30667 16.4933 7.17333 16.8667 7.04 17.16C6.90667 17.4267 6.8 17.64 6.72 17.8C6.72 17.9867 6.97333 18.4933 7.48 19.32L8.44 18.76L9.32 20.48L8.8 21.48C8.88 21.6133 8.94667 21.7333 9 21.84C9.05333 21.92 9.10667 22 9.16 22.08L9.28 22.32C9.28 22.4 9.44 22.6133 9.76 22.96C10.0533 23.3333 10.2933 23.52 10.48 23.52C10.7733 23.52 10.9867 23.4667 11.12 23.36C11.28 23.2533 11.4 23.2 11.48 23.2C11.56 23.2 11.6533 23.2533 11.76 23.36C11.8667 23.44 11.96 23.4933 12.04 23.52C13.2933 23.68 14.3867 23.4 15.32 22.68C15.6133 22.6267 16 22.5733 16.48 22.52C16.96 22.4667 17.36 22.2667 17.68 21.92C17.7867 21.8933 17.92 21.8133 18.08 21.68C18.24 21.5467 18.4133 21.4 18.6 21.24C18.7867 21.0533 18.9867 20.8667 19.2 20.68C19.4133 20.4933 19.64 20.3333 19.88 20.2C20.0133 20.12 20.12 20.1867 20.2 20.4C20.3067 20.6133 20.4133 20.6933 20.52 20.64L20.92 21.12L20.24 23.16L18.72 24.36L16.56 24.96C15.8933 25.1733 15.1733 25.4 14.4 25.64C13.6533 25.88 13.1067 26.0267 12.76 26.08C12.4667 26.1067 12.1467 26.1733 11.8 26.28C11.4533 26.36 11.12 26.4533 10.8 26.56C10.48 26.64 10.2 26.72 9.96 26.8C9.72 26.8533 9.57333 26.88 9.52 26.88C8.50667 26.88 7.77333 26.8933 7.32 26.92C6.86667 26.92 6.53333 26.92 6.32 26.92L2.72 24.28C2.66667 23.7733 2.26667 22.9733 1.52 21.88C0.8 20.8933 0.44 20.28 0.44 20.04L0.8 16.76C0.88 16.2 0.946667 15.6267 1 15.04C1.05333 14.4267 1.09333 13.8667 1.12 13.36C1.14667 12.8533 1.16 12.4133 1.16 12.04C1.18667 11.6667 1.2 11.44 1.2 11.36C1.41333 11.2533 1.72 11 2.12 10.6C2.52 10.1733 2.88 9.58667 3.2 8.84C3.86667 7.45333 4.10667 6.22667 3.92 5.16C4.05333 5.10667 4.42667 5.01333 5.04 4.88C5.65333 4.74667 6.28 4.54667 6.92 4.28C7.56 4.04 8.05333 3.85333 8.4 3.72C8.74667 3.58666 8.94667 3.50666 9 3.48C9.02667 3.45333 9.13333 3.41333 9.32 3.36C9.53333 3.30667 9.76 3.26667 10 3.24C10.2667 3.18667 10.52 3.14666 10.76 3.12C11 3.06667 11.1733 3.04 11.28 3.04L12.52 1.84L16.12 1.8L17 2.36L16.76 3.64L15.88 4.32ZM30.5788 26.2L30.0988 26.36C29.7254 26.4933 29.2854 26.5867 28.7788 26.64C28.2988 26.6667 27.9921 26.68 27.8588 26.68C27.7788 26.68 27.5921 26.6667 27.2988 26.64C27.0321 26.5867 26.8321 26.56 26.6988 26.56C26.6188 26.56 26.5121 26.6267 26.3788 26.76L24.5788 26.12C24.5788 25.9867 24.5788 25.8667 24.5788 25.76C24.6054 25.6533 24.6321 25.5333 24.6588 25.4C24.7121 25.0267 24.7521 24.68 24.7788 24.36C24.8321 24.0133 24.8321 23.6933 24.7788 23.4C24.9921 23.1867 25.0188 22.5333 24.8587 21.44C24.6988 20.32 24.6188 19.6133 24.6188 19.32C24.6188 19.24 24.6454 19.0267 24.6988 18.68C24.7521 18.3333 24.8054 18.0267 24.8587 17.76C24.8854 17.68 24.9388 17.5733 25.0188 17.44C25.1254 17.3067 25.1788 17.16 25.1788 17C25.1254 16.2267 25.1521 15.6 25.2588 15.12C25.3921 14.6133 25.4321 14.1067 25.3788 13.6C25.3521 13.4667 25.3654 13.3333 25.4188 13.2C25.4721 13.0667 25.4988 12.8933 25.4988 12.68V11.36C25.4988 10.9867 25.4988 10.5733 25.4988 10.12C25.4988 9.64 25.5121 9.09333 25.5388 8.48C25.5654 7.28 25.5788 6.48 25.5788 6.08C25.6054 5.68 25.6454 5.4 25.6988 5.24C25.7254 4.97333 25.7921 4.76 25.8988 4.6C26.0321 4.44 26.0988 4.17333 26.0988 3.8C26.0988 3.77333 26.0454 3.69333 25.9388 3.56C25.8588 3.42667 25.7521 3.25333 25.6188 3.04C25.5388 2.93333 25.4854 2.8 25.4588 2.64C25.4321 2.48 25.4188 2.33333 25.4188 2.2C25.4454 2.04 25.4588 1.90667 25.4588 1.8C25.4854 1.69333 25.4988 1.38667 25.4988 0.879999C26.2188 0.666665 26.9521 0.559998 27.6988 0.559998C28.4454 0.559998 29.0454 0.533332 29.4988 0.479999C29.6588 0.453333 29.7788 0.426666 29.8588 0.399998C29.9654 0.373331 30.0588 0.359998 30.1388 0.359998C30.2188 0.333332 30.3121 0.319999 30.4188 0.319999C30.5521 0.293332 30.7388 0.279999 30.9788 0.279999C31.0854 0.546666 31.2321 0.839999 31.4188 1.16C31.6054 1.48 31.7521 1.77333 31.8588 2.04C32.2054 2.52 32.5388 2.74667 32.8588 2.72C33.1788 2.69333 33.4721 2.57333 33.7388 2.36C34.0321 2.14666 34.2721 1.92 34.4588 1.68C34.6454 1.41333 34.7654 1.28 34.8188 1.28L39.3388 1.32L42.7787 3.68C42.9121 3.81333 43.0854 3.97333 43.2988 4.16C43.5121 4.32 43.7388 4.54667 43.9788 4.84C44.5121 5.4 44.9121 5.66667 45.1788 5.64L46.1388 7.04C46.0854 7.12 45.9654 7.36 45.7788 7.76C45.6188 8.13333 45.3788 8.66667 45.0588 9.36C44.4454 10.8 44.1388 11.92 44.1388 12.72L43.3387 13.2C42.8054 13.4133 42.5388 13.96 42.5388 14.84C42.0854 14.7867 41.3388 14.96 40.2988 15.36C40.0054 15.4933 39.6854 15.5867 39.3388 15.64C38.9921 15.6667 38.6721 15.6933 38.3788 15.72C38.1921 15.7467 38.0054 15.76 37.8188 15.76C37.6588 15.76 37.4854 15.76 37.2988 15.76L36.8588 16.76C36.5388 16.52 36.1788 16.36 35.7788 16.28C35.3788 16.2 34.9788 16.1733 34.5788 16.2C34.2054 16.2267 33.8454 16.28 33.4988 16.36C33.1521 16.44 32.8588 16.5333 32.6188 16.64C31.7388 16.96 31.2854 17.12 31.2588 17.12H31.0188C31.0454 17.1467 31.0588 17.1867 31.0588 17.24C31.0054 17.5067 30.9121 17.8267 30.7788 18.2C30.6721 18.5467 30.6188 18.7867 30.6188 18.92C30.6188 19.08 30.6321 19.3067 30.6588 19.6C30.6854 19.8667 30.7121 20.2267 30.7388 20.68C30.7654 21.1067 30.7788 21.4667 30.7788 21.76C30.8054 22.0533 30.8188 22.28 30.8188 22.44L30.9788 23.52C31.0321 23.7333 31.0721 23.9467 31.0988 24.16C31.1254 24.3467 31.1654 24.5467 31.2188 24.76L30.5788 26.2ZM32.0588 4.76C32.0588 4.97333 32.0588 5.22667 32.0588 5.52C32.0854 5.81333 32.1121 6.14667 32.1388 6.52C32.2721 8.17333 32.3121 9.16 32.2588 9.48C31.7254 9.8 31.4054 10.28 31.2988 10.92C31.2188 11.2667 31.1388 11.6 31.0588 11.92C30.9788 12.2133 30.8854 12.4667 30.7788 12.68L30.6988 12.76C30.6988 13.0533 30.6988 13.2667 30.6988 13.4C30.7254 13.5333 30.7388 13.6933 30.7388 13.88L31.4988 14.4L32.2588 14.2C32.2588 14.7867 32.9788 14.7733 34.4188 14.16C35.8321 13.5733 36.6321 13.28 36.8188 13.28H38.4988C38.7121 12.9867 38.9654 12.68 39.2588 12.36C39.5521 12.0133 39.6988 11.8 39.6988 11.72L40.2188 8.8L39.9788 7.8L34.6588 4H32.8988L32.0588 4.76ZM43.6588 26.28C43.6054 26.04 43.4454 25.88 43.1788 25.8C43.0721 25.6933 43.0321 25.5467 43.0588 25.36C43.0854 25.1733 43.0588 25.0533 42.9788 25C42.9521 24.9467 42.9254 24.92 42.8988 24.92C42.8721 24.92 42.8321 24.9067 42.7787 24.88C42.7521 24.8267 42.6721 24.7333 42.5388 24.6C42.4588 24.4933 42.3654 24.3867 42.2588 24.28C42.1521 24.1467 42.0321 23.9733 41.8988 23.76C41.6054 23.3867 41.3788 23.0933 41.2188 22.88C41.0588 22.64 40.9388 22.4933 40.8588 22.44C40.7521 22.3867 40.5921 22.28 40.3788 22.12C40.1654 21.96 40.0188 21.8667 39.9388 21.84C39.8588 21.76 39.7921 21.6667 39.7388 21.56C39.6854 21.4533 39.6321 21.3733 39.5788 21.32C39.5254 21.2667 39.4588 21.08 39.3788 20.76C39.2988 20.44 39.2188 20.16 39.1388 19.92C38.8454 19.6533 38.4054 19.1733 37.8188 18.48C37.6321 18.2933 37.5254 18.1733 37.4988 18.12L38.0188 17.36L39.9388 18.32C39.9654 18.3467 40.0988 18.3467 40.3388 18.32C40.6054 18.2933 40.8854 18.28 41.1788 18.28C41.4721 18.2533 41.7521 18.2533 42.0188 18.28C42.3121 18.3067 42.4988 18.3867 42.5788 18.52C42.6854 18.6533 42.8188 18.7467 42.9788 18.8C43.1388 18.8533 43.2988 18.9067 43.4588 18.96C43.6454 18.9867 43.7921 19.0133 43.8988 19.04C44.0321 19.0667 44.1121 19.12 44.1388 19.2L44.9388 20.68C45.0454 20.8133 45.2321 21.04 45.4988 21.36C45.7921 21.6533 46.1788 22.0667 46.6588 22.6C47.6188 23.72 48.1121 24.2933 48.1388 24.32L48.0188 25.72L44.8187 26.64L43.6588 26.28ZM52.4872 25.4C52.5139 25.2667 52.5272 25.1467 52.5272 25.04C52.5539 24.9067 52.5805 24.7733 52.6072 24.64C52.7672 23.52 52.8472 22.76 52.8472 22.36C52.8472 22.28 52.8205 22.1467 52.7672 21.96C52.7405 21.7733 52.7139 21.64 52.6872 21.56L53.0472 12.64C52.9139 12.4533 52.8872 12.2133 52.9672 11.92C53.0472 11.6 53.1672 11.4 53.3272 11.32C53.4339 10.9467 53.5805 10.52 53.7672 10.04C53.9805 9.56 54.0605 9.01333 54.0072 8.4C53.9805 8.10667 54.0072 7.86667 54.0872 7.68C54.1672 7.46667 54.2339 7.33333 54.2872 7.28L54.6072 6.96C54.8205 6.74667 54.9405 6.56 54.9672 6.4C54.9939 6.21333 54.9672 6.04 54.8872 5.88C54.8072 5.72 54.7005 5.6 54.5672 5.52C54.4605 5.41333 54.3539 5.33333 54.2472 5.28C54.1672 5.2 54.1272 5.14667 54.1272 5.12C54.1805 4.96 54.2072 4.82667 54.2072 4.72C54.2072 4.61333 54.1272 4.49333 53.9672 4.36L54.0472 3.4C54.1805 3.21333 54.4205 3.12 54.7672 3.12C55.1405 3.09333 55.4339 3.08 55.6472 3.08C55.7272 3.08 55.8605 3.08 56.0472 3.08C56.2339 3.05333 56.4472 3.04 56.6872 3.04L57.4072 3C57.5405 2.97333 57.6472 2.96 57.7272 2.96C57.8339 2.96 57.9272 2.96 58.0072 2.96L58.4472 2.76C58.6339 2.65333 58.7805 2.6 58.8872 2.6C58.9672 2.6 59.1139 2.64 59.3272 2.72C59.5672 2.77333 59.8205 2.88 60.0872 3.04L59.8872 6.92L59.4872 10.32C59.4872 10.4267 59.4205 10.6533 59.2872 11C59.1539 11.32 59.0205 11.5867 58.8872 11.8C58.8339 11.8533 58.8072 11.96 58.8072 12.12C58.8072 12.2533 58.8072 12.4133 58.8072 12.6C58.8339 12.76 58.8472 12.92 58.8472 13.08C58.8739 13.24 58.8739 13.36 58.8472 13.44L58.5672 16.36C58.5672 16.4133 58.5405 16.4667 58.4872 16.52C58.4605 16.5467 58.4205 16.64 58.3672 16.8C58.3405 16.9333 58.3005 17.1333 58.2472 17.4C58.1939 17.6667 58.1539 18.04 58.1272 18.52C58.0739 19.5333 58.0205 20.24 57.9672 20.64C57.9139 21.04 57.8872 21.2667 57.8872 21.32C57.8872 21.5867 57.9672 21.7733 58.1272 21.88C58.3139 21.9867 58.4072 22.1467 58.4072 22.36C58.3005 22.4667 58.3272 22.6667 58.4872 22.96C58.6739 23.2533 58.9939 23.44 59.4472 23.52C59.9005 23.6 60.4072 23.5733 60.9672 23.44C61.5272 23.28 62.1405 23.1733 62.8072 23.12C63.0472 23.12 63.1939 23.1467 63.2472 23.2C63.3272 23.2533 63.3939 23.32 63.4472 23.4C63.5272 23.4533 63.6472 23.52 63.8072 23.6C63.9939 23.6533 64.3272 23.6933 64.8072 23.72C64.9139 23.72 65.1139 23.64 65.4072 23.48C65.7272 23.32 65.8605 23.0667 65.8072 22.72C66.0205 22.72 66.2872 22.68 66.6072 22.6C66.9539 22.52 67.3005 22.4533 67.6472 22.4C67.9939 22.3467 68.3005 22.3467 68.5672 22.4C68.8339 22.4267 69.0072 22.56 69.0872 22.8L69.2472 23.4C69.2205 23.4533 69.2072 23.52 69.2072 23.6C69.2072 23.6533 69.1939 23.72 69.1672 23.8C69.1405 23.9333 69.1005 24.12 69.0472 24.36C68.9939 24.5733 68.9405 24.8267 68.8872 25.12C68.3272 25.1733 68.0205 25.1867 67.9672 25.16C67.9139 25.1333 67.8605 25.12 67.8072 25.12C67.7272 25.12 67.5939 25.1733 67.4072 25.28C67.2472 25.36 67.1139 25.4267 67.0072 25.48C66.8472 25.5067 66.5805 25.5467 66.2072 25.6C65.8605 25.6533 65.4205 25.7067 64.8872 25.76C64.5939 25.8133 64.3405 25.8533 64.1272 25.88C63.9405 25.88 63.7805 25.8933 63.6472 25.92C63.5405 25.9467 63.4072 25.96 63.2472 25.96C63.2205 25.96 63.1272 25.9733 62.9672 26C62.8072 26 62.6205 26 62.4072 26H61.2072C60.6739 25.9467 60.2872 25.9067 60.0472 25.88C59.8339 25.8533 59.6605 25.8533 59.5272 25.88C59.4205 25.88 59.3139 25.92 59.2072 26C59.1272 26.0533 58.9405 26.16 58.6472 26.32C58.5405 26.3467 58.3405 26.36 58.0472 26.36H56.3272C56.1139 26.3333 55.9405 26.32 55.8072 26.32C55.7005 26.2933 55.5805 26.2667 55.4472 26.24L53.8872 26.72C53.5139 26.6667 53.2205 26.5067 53.0072 26.24C52.7939 25.9733 52.6205 25.6933 52.4872 25.4Z" fill="white"/>
</svg>
